<svg width="145" height="39" viewBox="0 0 145 39" fill="none" xmlns="http://www.w3.org/2000/svg">
<rect x="5.5" y="2.5" width="139" height="36" rx="4.5" fill="black" stroke="black"/>
<rect x="0.5" y="0.5" width="141.207" height="36.082" rx="4.5" fill="#F8F7E2" stroke="black"/>
<path d="M14.094 25.6055H10.8989V7.9834H14.094V25.6055Z" fill="black"/>
<path d="M32.1953 25.6055H29.0002V18.2322C29.0002 17.8144 28.9265 17.4416 28.7791 17.1139C28.6398 16.778 28.4473 16.4913 28.2015 16.2537C27.9557 16.0161 27.6649 15.8359 27.329 15.713C27.0013 15.5819 26.6449 15.5164 26.2599 15.5164H20.6685V25.6055H17.4734V13.9066C17.4734 13.6854 17.5144 13.4806 17.5963 13.2921C17.6782 13.0955 17.7929 12.9276 17.9404 12.7883C18.0878 12.6408 18.2599 12.5261 18.4565 12.4442C18.6531 12.3623 18.862 12.3213 19.0832 12.3213H26.2844C26.6859 12.3213 27.1078 12.3664 27.5502 12.4565C28.0008 12.5466 28.4432 12.6941 28.8774 12.8989C29.3198 13.0955 29.7376 13.3495 30.1308 13.6608C30.5322 13.9639 30.8845 14.3367 31.1876 14.7791C31.499 15.2133 31.7447 15.7171 31.925 16.2906C32.1052 16.8641 32.1953 17.5113 32.1953 18.2322V25.6055Z" fill="black"/>
<path d="M47.8389 21.1201C47.8389 21.669 47.7693 22.1646 47.63 22.607C47.4907 23.0412 47.3064 23.4263 47.077 23.7621C46.8476 24.0898 46.5813 24.3725 46.2782 24.6101C45.9751 24.8395 45.6556 25.0279 45.3197 25.1754C44.992 25.3228 44.6561 25.4334 44.312 25.5072C43.9761 25.5727 43.6566 25.6055 43.3535 25.6055H34.7022V22.4104H43.3289C43.7631 22.4104 44.0908 22.2998 44.312 22.0786C44.5332 21.8574 44.6438 21.5379 44.6438 21.1201C44.6029 20.268 44.1728 19.842 43.3535 19.842H38.4011C37.6966 19.842 37.0985 19.7192 36.607 19.4734C36.1154 19.2276 35.714 18.9204 35.4027 18.5517C35.0996 18.1831 34.8784 17.7857 34.7391 17.3597C34.608 16.9337 34.5425 16.5364 34.5425 16.1677C34.5425 15.455 34.6695 14.8569 34.9234 14.3735C35.1774 13.882 35.4969 13.4847 35.8819 13.1815C36.267 12.8784 36.6848 12.6613 37.1354 12.5302C37.586 12.391 38.0079 12.3213 38.4011 12.3213H46.2536V15.5164H38.4257C38.2619 15.5164 38.1308 15.5369 38.0325 15.5778C37.9424 15.6106 37.8727 15.6598 37.8236 15.7253C37.7826 15.7827 37.758 15.8482 37.7498 15.9219C37.7416 15.9875 37.7375 16.053 37.7375 16.1185C37.7457 16.2496 37.7703 16.352 37.8113 16.4258C37.8522 16.4995 37.9014 16.5528 37.9587 16.5855C38.0243 16.6183 38.0939 16.6388 38.1677 16.647C38.2496 16.647 38.3274 16.647 38.4011 16.647H43.3535C44.1728 16.647 44.8691 16.7944 45.4426 17.0894C46.0161 17.3843 46.4789 17.757 46.8312 18.2076C47.1835 18.65 47.4375 19.1334 47.5931 19.6577C47.757 20.182 47.8389 20.6695 47.8389 21.1201Z" fill="black"/>
<path d="M61.9464 15.5164H56.3673V25.6055H53.1353V15.5164H48.9818V12.3213H53.1353V7.9834H56.3673V12.3213H61.9464V15.5164Z" fill="black"/>
<path d="M77.0001 21.2061C77.0001 21.6485 76.9223 22.1277 76.7666 22.6439C76.6109 23.1518 76.357 23.627 76.0047 24.0694C75.6606 24.5036 75.2059 24.8681 74.6407 25.1631C74.0836 25.458 73.4036 25.6055 72.6007 25.6055H66.8373C66.3949 25.6055 65.9156 25.5276 65.3995 25.372C64.8916 25.2163 64.4164 24.9664 63.974 24.6224C63.5398 24.2701 63.1753 23.8154 62.8803 23.2583C62.5854 22.693 62.4379 22.009 62.4379 21.2061C62.4379 20.7637 62.5158 20.2844 62.6714 19.7683C62.8271 19.2522 63.0769 18.777 63.421 18.3428C63.7733 17.9004 64.228 17.5318 64.7851 17.2368C65.3504 16.9419 66.0344 16.7944 66.8373 16.7944H72.6007V19.842H66.8373C66.4031 19.842 66.0672 19.9772 65.8296 20.2476C65.592 20.5097 65.4732 20.8374 65.4732 21.2307C65.4732 21.6485 65.6084 21.9762 65.8788 22.2138C66.1573 22.4432 66.485 22.5579 66.8619 22.5579H72.6007C73.0349 22.5579 73.3708 22.4268 73.6084 22.1646C73.846 21.9025 73.9648 21.5748 73.9648 21.1815V16.7207C73.9648 16.3029 73.8337 15.9711 73.5715 15.7253C73.3176 15.4795 72.994 15.3566 72.6007 15.3566H65.5838V12.3213H72.6007C73.0431 12.3213 73.5183 12.3992 74.0262 12.5548C74.5423 12.7105 75.0175 12.9644 75.4517 13.3167C75.8941 13.6608 76.2628 14.1155 76.5577 14.6808C76.8526 15.2379 77.0001 15.9178 77.0001 16.7207V21.2061Z" fill="black"/>
<path d="M95.9058 19.6906C95.9058 20.5794 95.7463 21.3969 95.4273 22.1431C95.1152 22.8894 94.6818 23.5339 94.1271 24.0767C93.5723 24.6126 92.9135 25.0332 92.1507 25.3385C91.3879 25.6438 90.5592 25.7965 89.6647 25.7965H82.3626C82.1685 25.7965 81.9882 25.7626 81.8217 25.6947C81.6553 25.6269 81.5097 25.5353 81.3849 25.4199C81.267 25.2978 81.1734 25.1554 81.104 24.9925C81.0347 24.8297 81 24.6533 81 24.4634V12.5366C81 12.3535 81.0347 12.1805 81.104 12.0176C81.1734 11.8548 81.267 11.7123 81.3849 11.5902C81.5097 11.4681 81.6553 11.3731 81.8217 11.3053C81.9882 11.2374 82.1685 11.2035 82.3626 11.2035H89.6647C90.5592 11.2035 91.3879 11.3562 92.1507 11.6615C92.9135 11.9668 93.5723 12.3908 94.1271 12.9335C94.6818 13.4695 95.1152 14.114 95.4273 14.867C95.7463 15.6133 95.9058 16.4274 95.9058 17.3094V19.6906ZM93.2013 17.3094C93.2013 16.7938 93.1146 16.3223 92.9413 15.8948C92.7748 15.4674 92.5356 15.1045 92.2235 14.806C91.9115 14.5007 91.537 14.2666 91.1001 14.1038C90.6702 13.9342 90.1917 13.8494 89.6647 13.8494H83.7045V23.1506H89.6647C90.1917 23.1506 90.6702 23.0692 91.1001 22.9064C91.537 22.7368 91.9115 22.5027 92.2235 22.2042C92.5356 21.8989 92.7748 21.536 92.9413 21.1153C93.1146 20.6879 93.2013 20.213 93.2013 19.6906V17.3094Z" fill="url(#paint0_linear_160_402)"/>
<path d="M113.194 25.7965H110.489V22.2144H100.982V25.7965H98.2774V18.5C98.2774 17.4349 98.4646 16.4545 98.8391 15.559C99.2135 14.6635 99.7336 13.8935 100.399 13.249C101.065 12.6045 101.852 12.1024 102.761 11.7429C103.669 11.3833 104.661 11.2035 105.735 11.2035H111.831C112.018 11.2035 112.195 11.2374 112.361 11.3053C112.528 11.3731 112.673 11.4681 112.798 11.5902C112.923 11.7123 113.02 11.8548 113.09 12.0176C113.159 12.1805 113.194 12.3535 113.194 12.5366V25.7965ZM100.982 19.5685H110.489V13.8494H105.735C105.652 13.8494 105.475 13.863 105.205 13.8901C104.941 13.9104 104.633 13.9681 104.279 14.0631C103.932 14.1581 103.565 14.3039 103.177 14.5007C102.788 14.6974 102.431 14.9688 102.105 15.3148C101.779 15.6608 101.509 16.095 101.294 16.6174C101.086 17.133 100.982 17.7605 100.982 18.5V19.5685Z" fill="url(#paint1_linear_160_402)"/>
<path d="M132 19.8942C132 20.7829 131.844 21.6004 131.532 22.3467C131.22 23.0929 130.786 23.7374 130.232 24.2802C129.677 24.8229 129.018 25.2469 128.255 25.5522C127.499 25.8507 126.674 26 125.78 26H122.118C121.224 26 120.395 25.8507 119.632 25.5522C118.869 25.2469 118.211 24.8229 117.656 24.2802C117.101 23.7374 116.664 23.0929 116.345 22.3467C116.033 21.6004 115.877 20.7829 115.877 19.8942V17.1058C115.877 16.2239 116.033 15.4098 116.345 14.6635C116.664 13.9104 117.101 13.2659 117.656 12.73C118.211 12.1872 118.869 11.7632 119.632 11.4579C120.395 11.1526 121.224 11 122.118 11H125.78C126.674 11 127.499 11.1526 128.255 11.4579C129.018 11.7632 129.677 12.1872 130.232 12.73C130.786 13.2659 131.22 13.9104 131.532 14.6635C131.844 15.4098 132 16.2239 132 17.1058V19.8942ZM129.296 17.1058C129.296 16.5834 129.209 16.1119 129.035 15.6913C128.869 15.2639 128.63 14.9009 128.318 14.6024C128.013 14.2972 127.642 14.0631 127.205 13.9003C126.775 13.7307 126.3 13.6459 125.78 13.6459H122.118C121.591 13.6459 121.109 13.7307 120.672 13.9003C120.243 14.0631 119.872 14.2972 119.559 14.6024C119.247 14.9009 119.005 15.2639 118.831 15.6913C118.665 16.1119 118.582 16.5834 118.582 17.1058V19.8942C118.582 20.4166 118.665 20.8915 118.831 21.3189C119.005 21.7395 119.247 22.1024 119.559 22.4077C119.872 22.7062 120.243 22.9403 120.672 23.1099C121.109 23.2727 121.591 23.3541 122.118 23.3541H125.759C126.286 23.3541 126.764 23.2727 127.194 23.1099C127.631 22.9403 128.006 22.7062 128.318 22.4077C128.63 22.1024 128.869 21.7395 129.035 21.3189C129.209 20.8915 129.296 20.4166 129.296 19.8942V17.1058Z" fill="url(#paint2_linear_160_402)"/>
<defs>
<linearGradient id="paint0_linear_160_402" x1="101.687" y1="22.3474" x2="121.577" y2="22.3474" gradientUnits="userSpaceOnUse">
<stop stop-color="#C47DFC"/>
<stop offset="0.729167" stop-color="#FF8181"/>
</linearGradient>
<linearGradient id="paint1_linear_160_402" x1="101.687" y1="22.3474" x2="121.577" y2="22.3474" gradientUnits="userSpaceOnUse">
<stop stop-color="#C47DFC"/>
<stop offset="0.729167" stop-color="#FF8181"/>
</linearGradient>
<linearGradient id="paint2_linear_160_402" x1="101.687" y1="22.3474" x2="121.577" y2="22.3474" gradientUnits="userSpaceOnUse">
<stop stop-color="#C47DFC"/>
<stop offset="0.729167" stop-color="#FF8181"/>
</linearGradient>
</defs>
</svg>
